<?xml version="1.0" encoding="utf-8"?>
<!-- Generator: Adobe Illustrator 18.1.1, SVG Export Plug-In . SVG Version: 6.00 Build 0)  -->
<!DOCTYPE svg PUBLIC "-//W3C//DTD SVG 1.1//EN" "http://www.w3.org/Graphics/SVG/1.1/DTD/svg11.dtd">
<svg version="1.1" id="Layer_1" xmlns="http://www.w3.org/2000/svg" xmlns:xlink="http://www.w3.org/1999/xlink" x="0px" y="0px"
	 viewBox="-182 488.9 397 142" enable-background="new -182 488.9 397 142" xml:space="preserve">
<g>
	<path fill="#FFFFFF" stroke="#FFFFFF" stroke-miterlimit="10" d="M-63.4,598.5c-18.6-19.7-18.6-50.3-0.7-70.1c-1,0.8-2,1.7-3,2.6
		c-20.7,19.6-21.6,52.2-2.1,72.9c19.6,20.7,52.2,21.6,72.9,2.1c1-0.9,1.9-1.8,2.7-2.8C-14.2,620-44.8,618.3-63.4,598.5z"/>
	<path fill="#FFFFFF" stroke="#FFFFFF" stroke-miterlimit="10" d="M-62.4,527.5c-17.7,31.3-6.7,48.1,0.9,55
		c21.3-5.6,20.5-31.9,21.8-46.8c1.5-17.4,21.8-19.9,21.8-19.9s-56.5-28.7-76.4,15.9c-11.6,26-2.9,39.2,6.4,45.7
		C-89.1,533-62.4,527.5-62.4,527.5z"/>
	
		<text transform="matrix(1 0 0 1 -22.9564 582.999)" fill="#FFFFFF" stroke="#FFFFFF" stroke-miterlimit="10" font-family="'AvenirNext-UltraLight'" font-size="58.1918">N’LER</text>
</g>
</svg>
